<?xml version="1.0" standalone="no"?>
<!DOCTYPE svg PUBLIC "-//W3C//DTD SVG 20010904//EN"
 "http://www.w3.org/TR/2001/REC-SVG-20010904/DTD/svg10.dtd">
<svg version="1.0" xmlns="http://www.w3.org/2000/svg"
 width="700.000000pt" height="700.000000pt" viewBox="0 0 700.000000 700.000000"
 preserveAspectRatio="xMidYMid meet">
<metadata>
Created by potrace 1.11, written by Peter Selinger 2001-2013
</metadata>
<g transform="translate(0.000000,700.000000) scale(0.100000,-0.100000)"
fill="#000000" stroke="none">
<path d="M3465 6346 c-24 -10 -82 -91 -266 -367 -335 -502 -444 -678 -554
-899 -70 -140 -147 -315 -150 -340 -1 -3 -11 -36 -23 -75 -84 -268 -86 -544
-5 -768 104 -292 325 -526 606 -641 157 -65 242 -81 427 -80 171 0 209 6 360
56 426 143 722 560 722 1018 1 255 -63 482 -227 810 -125 250 -233 427 -565
923 -254 380 -263 389 -325 363z m248 -548 c261 -393 392 -609 503 -833 78
-159 164 -389 177 -475 3 -19 9 -55 13 -80 10 -57 10 -239 1 -307 -9 -63 -50
-190 -85 -258 -57 -115 -146 -224 -247 -304 -407 -324 -996 -253 -1313 158
-130 168 -193 367 -187 590 9 295 148 637 463 1141 89 141 453 690 458 690 2
0 100 -145 217 -322z"/>
<path d="M3453 5703 c-18 -7 -217 -289 -289 -410 -128 -212 -157 -359 -98
-481 83 -170 324 -176 485 -11 152 154 193 407 109 661 -56 167 -110 249 -163
247 -18 0 -37 -3 -44 -6z m51 -295 c40 -130 42 -253 7 -360 -38 -115 -135
-201 -224 -200 -102 2 -110 107 -23 282 40 80 204 330 216 330 4 0 15 -24 24
-52z"/>
<path d="M1196 4338 c-146 -19 -251 -118 -286 -268 -18 -77 -18 -1209 0 -1325
20 -128 77 -267 188 -455 25 -41 57 -97 72 -125 15 -27 47 -84 71 -125 164
-287 295 -647 334 -920 3 -19 8 -49 10 -66 6 -36 14 -148 19 -259 2 -44 7 -88
11 -98 18 -43 26 -44 712 -43 650 1 653 1 674 22 23 24 77 190 144 451 140
539 147 883 25 1176 -68 163 -141 252 -522 638 -265 268 -300 300 -363 330
-62 30 -78 34 -155 34 -76 0 -93 -4 -152 -33 -170 -83 -240 -273 -160 -435 29
-58 57 -92 232 -287 260 -290 308 -350 282 -350 -10 0 -91 84 -222 230 -47 52
-92 101 -100 110 -8 9 -46 52 -85 94 -38 43 -75 84 -80 90 -71 77 -209 243
-228 273 -49 77 -49 88 -52 587 -2 404 -4 478 -18 522 -51 157 -196 253 -351
232z m116 -184 c41 -21 70 -69 83 -135 3 -13 5 -227 5 -476 1 -490 2 -507 57
-603 33 -58 109 -152 253 -315 63 -71 117 -132 120 -135 3 -3 46 -50 95 -105
50 -55 113 -125 141 -155 29 -30 73 -78 99 -107 80 -89 165 -113 250 -72 73
36 112 133 85 214 -14 41 -89 134 -275 339 -5 6 -44 49 -85 96 -41 47 -88 98
-103 115 -104 110 -113 201 -27 279 62 56 152 60 228 12 49 -31 578 -569 657
-669 146 -183 198 -359 190 -637 -2 -85 -7 -175 -10 -200 -12 -89 -56 -298
-91 -430 -20 -74 -37 -142 -40 -150 -2 -8 -16 -57 -31 -108 l-27 -92 -558 0
-558 0 -1 28 c-8 413 -146 858 -413 1326 -31 54 -56 100 -56 102 0 2 -17 32
-38 66 -60 98 -126 227 -151 293 -43 114 -47 175 -46 805 1 546 2 598 18 631
46 94 141 129 229 83z"/>
<path d="M5661 4329 c-46 -14 -109 -55 -140 -91 -39 -45 -78 -126 -87 -177 -4
-25 -8 -253 -9 -506 -1 -440 -2 -462 -22 -505 -29 -64 -79 -127 -313 -390 -47
-52 -87 -97 -90 -100 -3 -3 -25 -28 -50 -55 -50 -56 -248 -271 -268 -292 -15
-15 -32 -17 -32 -5 0 8 54 74 124 152 17 20 67 76 111 125 44 50 85 95 90 101
6 6 37 42 70 79 33 38 65 73 70 79 83 93 111 223 73 336 -51 152 -227 253
-384 222 -110 -23 -157 -54 -314 -213 -471 -477 -538 -550 -606 -664 -146
-245 -182 -526 -118 -930 37 -238 186 -781 224 -819 20 -21 26 -21 658 -23
350 0 652 1 670 4 51 8 69 46 72 146 7 279 73 565 204 887 55 133 183 391 283
570 141 251 182 347 204 480 13 75 19 1225 7 1303 -16 110 -86 211 -180 262
-44 24 -67 29 -133 32 -44 1 -95 -2 -114 -8z m175 -176 c37 -19 69 -64 83
-117 7 -25 9 -248 8 -645 -3 -550 -5 -613 -21 -676 -19 -74 -68 -184 -134
-300 -193 -344 -309 -585 -394 -820 -42 -117 -113 -379 -124 -461 -3 -27 -8
-58 -10 -69 -2 -11 -7 -51 -10 -90 -3 -38 -7 -79 -9 -90 -2 -11 -4 -30 -4 -43
l-1 -22 -557 2 -558 3 -28 95 c-23 79 -117 429 -117 438 0 1 -2 12 -4 25 -16
81 -28 146 -31 172 -16 131 -19 174 -19 280 -1 193 19 292 83 430 58 124 136
216 458 542 324 328 337 338 430 331 95 -8 163 -80 163 -171 0 -32 -36 -99
-76 -142 -38 -40 -331 -372 -393 -444 -92 -108 -109 -160 -76 -238 43 -102
152 -141 248 -89 33 18 149 134 267 269 19 22 49 54 65 71 17 17 62 67 100
111 39 44 79 89 90 101 186 195 300 361 319 462 3 18 6 236 7 485 1 249 6 471
11 493 11 50 65 110 111 122 40 11 83 6 123 -15z"/>
</g>
</svg>
