<svg xmlns="http://www.w3.org/2000/svg" xmlns:xlink="http://www.w3.org/1999/xlink" viewBox="0 0 768 260"><use xlink:href="#B" fill="#fff"/><use xlink:href="#B" fill="#b21936"/><path d="M730.56 116.54a52.28 52.28 0 0 0-10.63-18.6 51.16 51.16 0 0 0-17.19-12.55 53.86 53.86 0 0 0-22.32-4.57 62.47 62.47 0 0 0-13 1.32l.7-7.4a21.22 21.22 0 0 0-15.25-21.66 61.32 61.32 0 0 0-9.67-2 81.31 81.31 0 0 0-9.7-.5 55.45 55.45 0 0 0-18.85 3.16 47.13 47.13 0 0 0-16.51 10A45.13 45.13 0 0 0 587 80.45l-1.16 3.36a21.4 21.4 0 0 0-5.18 2.79c-7.72-3.8-16.73-5.78-27-5.78a97.45 97.45 0 0 0-30.89 5.24l-.54.2-.58-.24a92.61 92.61 0 0 0-14.23-3.86 81.5 81.5 0 0 0-14.72-1.34c-13.7 0-25.2 3.58-34.15 10.64q-1.2.95-2.28 2l-.12-.1c-8.44-7.63-20.08-11.5-34.6-11.5a97.74 97.74 0 0 0-14.08 1 80.94 80.94 0 0 0-12.24 2.62 21.12 21.12 0 0 0-10.14 6.81c-6.16-5.52-15.67-10.43-30-10.43a48 48 0 0 0-15.45 2.47c-.65.22-1.3.46-1.94.7a21.4 21.4 0 0 0-5.18-1.31c-1.13-.14-2.2-.25-3.23-.32a50.93 50.93 0 0 0-7.11 0c-1.1.08-2.2.18-3.36.33a21.16 21.16 0 0 0-14.87 9.06 50.8 50.8 0 0 0-9.45-5.92 53.22 53.22 0 0 0-23.29-5 53.77 53.77 0 0 0-23.28 5 57.34 57.34 0 0 0-2.59 1.33 21.17 21.17 0 0 0-10.21-4.39 34.25 34.25 0 0 0-4.73-.35h-1.5a49.91 49.91 0 0 0-13.69 1.81 20.86 20.86 0 0 0-5.64-1.5 56.84 56.84 0 0 0-3.23-.32 50.93 50.93 0 0 0-7.11 0 60.14 60.14 0 0 0-3.35.33 21.18 21.18 0 0 0-14.87 9 51 51 0 0 0-9.46-5.91 53.17 53.17 0 0 0-23.28-5 51.33 51.33 0 0 0-28.3 7.7 21.38 21.38 0 0 0-6.86-4 65.68 65.68 0 0 0-11.37-2.69 87 87 0 0 0-13.59-1 58.67 58.67 0 0 0-23.77 4.7 51.71 51.71 0 0 0-18.48 13.49 56.26 56.26 0 0 0-10.72 19.15 68.83 68.83 0 0 0-3.33 21.58c0 17.82 5.06 32.18 15 42.67 10.26 10.83 24.48 16.3 42.27 16.3a76.37 76.37 0 0 0 14-1.21 73.71 73.71 0 0 0 11.33-3 20.82 20.82 0 0 0 5.9-3.28 48.74 48.74 0 0 0 4.67 2.53 53.57 53.57 0 0 0 23.28 5 53.11 53.11 0 0 0 23.28-5 50.24 50.24 0 0 0 9.45-5.91 21.2 21.2 0 0 0 14 8.93 42.05 42.05 0 0 0 4.91.48q2.2.1 3.2.1c.8 0 1.92 0 3.37-.1a41.43 41.43 0 0 0 4.75-.47A21.21 21.21 0 0 0 228.92 179c.45.62.9 1.23 1.38 1.83a49.06 49.06 0 0 0 17.61 14 56.87 56.87 0 0 0 46.57 0 50.56 50.56 0 0 0 9.45-5.91 21.11 21.11 0 0 0 14 8.93 40.21 40.21 0 0 0 4.9.48l3.22.1c.67 0 1.92 0 3.37-.1a41.43 41.43 0 0 0 4.75-.47 21.21 21.21 0 0 0 15.92-12.29 21.23 21.23 0 0 0 15.93 12.29 42.05 42.05 0 0 0 4.91.48q2.2.1 3.2.1c.8 0 1.92 0 3.37-.1a41.43 41.43 0 0 0 4.75-.47 21.15 21.15 0 0 0 10.83-5.26c8.18 4.8 18.24 7.24 30 7.24a119.33 119.33 0 0 0 16.38-1.19c5.17-.73 9.5-1.44 13.24-2.2a20.77 20.77 0 0 0 4.1-1.27c1.87.66 3.7 1.27 5.44 1.76q3.4.93 6.92 1.6a71.84 71.84 0 0 0 7.78 1c2.4.18 5 .27 7.82.27a65.2 65.2 0 0 0 19.93-2.92 53.88 53.88 0 0 0 15-7.52c.53.4 1.06.8 1.6 1.18a49.49 49.49 0 0 0 18 7.53 85.41 85.41 0 0 0 17.62 1.73 103.56 103.56 0 0 0 20.13-1.82 137.79 137.79 0 0 0 14.25-3.54c.34-.1.67-.24 1-.37a21.16 21.16 0 0 0 9 3.75 83.06 83.06 0 0 0 13.52 1.13 82.11 82.11 0 0 0 13.38-1.13 21.19 21.19 0 0 0 15.2-10.9 54 54 0 0 0 14.88 8.62 69.45 69.45 0 0 0 25.15 4.26 90.17 90.17 0 0 0 32.51-5.66 21.21 21.21 0 0 0 13.59-20.48 56.41 56.41 0 0 0-1.9-13 21.18 21.18 0 0 0 5.11-10.44 60.58 60.58 0 0 0 .76-6.21 85.85 85.85 0 0 0 .29-7 65.28 65.28 0 0 0-3.24-20.49z" fill="#fff"/><path d="M683.4 200.67a70.31 70.31 0 0 1-25.47-4.33 55.22 55.22 0 0 1-14.31-8.1 21.91 21.91 0 0 1-15.3 10.43 81.43 81.43 0 0 1-27.2 0 22 22 0 0 1-8.92-3.62l-.62.2a135 135 0 0 1-14.33 3.56 103.81 103.81 0 0 1-20.31 1.85 86.38 86.38 0 0 1-17.8-1.75 50.58 50.58 0 0 1-18.29-7.67l-1.13-.82A55.08 55.08 0 0 1 505 197.7a66 66 0 0 1-20.2 3c-2.8 0-5.45-.1-7.88-.28a73 73 0 0 1-7.88-1l-7-1.63-5.2-1.67a21.39 21.39 0 0 1-3.94 1.2c-3.77.75-8.1 1.47-13.3 2.2a119.58 119.58 0 0 1-16.5 1.21c-11.6 0-21.65-2.37-29.88-7a22 22 0 0 1-10.8 5.06 43.15 43.15 0 0 1-4.85.47c-1.47.07-2.6.1-3.4.1s-1.76 0-3.25-.1a42 42 0 0 1-5-.49 22.05 22.05 0 0 1-15.78-11.17 22 22 0 0 1-15.78 11.17 40.54 40.54 0 0 1-4.85.48 75.02 75.02 0 0 1-3.41.1c-.8 0-1.77 0-3.26-.1a43.58 43.58 0 0 1-5-.48 22.24 22.24 0 0 1-14.08-8.55 50.76 50.76 0 0 1-8.88 5.44 57.66 57.66 0 0 1-47.33 0 50.13 50.13 0 0 1-17.93-14.22l-.12-.16a22.14 22.14 0 0 1-18.07 17.45 43.15 43.15 0 0 1-4.85.47c-1.47.07-2.6.1-3.4.1s-1.76 0-3.25-.1a42.24 42.24 0 0 1-5-.49 21.83 21.83 0 0 1-14.06-8.54 52 52 0 0 1-8.88 5.45 57.71 57.71 0 0 1-47.33 0c-1.4-.67-2.83-1.43-4.23-2.26a21.82 21.82 0 0 1-5.66 3 73.86 73.86 0 0 1-11.47 3.05 77.14 77.14 0 0 1-14.11 1.23c-18 0-32.48-5.58-42.9-16.6C36.1 173.42 31 158.85 31 140.8a69.63 69.63 0 0 1 3.34-21.8 57.06 57.06 0 0 1 10.89-19.5A52.58 52.58 0 0 1 64 85.7a59.44 59.44 0 0 1 24.12-4.78A87.51 87.51 0 0 1 101.88 82a66 66 0 0 1 11.52 2.73 21.8 21.8 0 0 1 6.65 3.72 51 51 0 0 1 4.56-2.45 57.66 57.66 0 0 1 47.33 0 51.84 51.84 0 0 1 8.89 5.44 22.14 22.14 0 0 1 14.94-8.67c1.17-.15 2.3-.25 3.4-.33a52.86 52.86 0 0 1 7.23 0c1.07.08 2.13.2 3.28.33a22.43 22.43 0 0 1 5.59 1.44 51.23 51.23 0 0 1 13.63-1.75h1.48a34.7 34.7 0 0 1 4.86.36 22.06 22.06 0 0 1 10.16 4.21 52.93 52.93 0 0 1 2.13-1.07 57.66 57.66 0 0 1 47.33 0 51.84 51.84 0 0 1 8.89 5.44 22.12 22.12 0 0 1 14.94-8.67c1.17-.15 2.3-.25 3.4-.33a54.5 54.5 0 0 1 7.23 0c1.06.08 2.13.2 3.27.33a22.18 22.18 0 0 1 5.08 1.27l1.66-.6a48.82 48.82 0 0 1 15.73-2.52c12.07 0 22.14 3.4 29.94 10.06a22 22 0 0 1 10-6.39 81.76 81.76 0 0 1 12.38-2.66 99.31 99.31 0 0 1 14.2-1c14.48 0 26.16 3.8 34.72 11.3.56-.5 1.13-1 1.73-1.45 9.1-7.2 20.8-10.83 34.7-10.83a82.47 82.47 0 0 1 14.89 1.35A93.19 93.19 0 0 1 522 85.19l.3.12.24-.1a96.58 96.58 0 0 1 16.11-4c16.58-2.63 30.55-1.12 42 4.38a22.85 22.85 0 0 1 4.55-2.45l1-3a45.94 45.94 0 0 1 11.32-17 47.83 47.83 0 0 1 16.79-10.27 56.24 56.24 0 0 1 19.15-3.22 80.53 80.53 0 0 1 9.8.52 62 62 0 0 1 9.82 2.06A22 22 0 0 1 669 74.81c-.13 2.17-.3 4.2-.55 6.22a64.52 64.52 0 0 1 12-1.09 54.72 54.72 0 0 1 22.68 4.64 52.19 52.19 0 0 1 17.49 12.77 53.26 53.26 0 0 1 10.81 18.92 66.12 66.12 0 0 1 3.2 20.73 87.69 87.69 0 0 1-.29 7.09c-.2 2.33-.45 4.53-.77 6.3a22.1 22.1 0 0 1-5 10.51 58.17 58.17 0 0 1 1.81 12.73A22.13 22.13 0 0 1 716.22 195a91.25 91.25 0 0 1-32.83 5.67zm-40.3-15.13l.83.68a53.44 53.44 0 0 0 14.64 8.47 68.55 68.55 0 0 0 24.83 4.21 89.48 89.48 0 0 0 32.19-5.6 20.36 20.36 0 0 0 13-19.63 55.68 55.68 0 0 0-1.87-12.79l-.13-.46.32-.36a20.23 20.23 0 0 0 4.9-10c.3-1.72.56-3.72.75-6.13s.28-4.63.28-7a64.41 64.41 0 0 0-3.14-20.16h0a51.39 51.39 0 0 0-10.45-18.29 50.43 50.43 0 0 0-16.9-12.34 52.92 52.92 0 0 0-22-4.49A62.38 62.38 0 0 0 667.56 83l-1.22.26.16-1.26c.3-2.36.53-4.75.7-7.32a20.23 20.23 0 0 0-14.61-20.76 60.78 60.78 0 0 0-9.54-2 79.37 79.37 0 0 0-9.59-.5 54.72 54.72 0 0 0-18.55 3.11 46.11 46.11 0 0 0-16.2 9.87 44.16 44.16 0 0 0-10.88 16.36c-.4 1.06-.8 2.17-1.13 3.3l-.13.43-.4.15a20.37 20.37 0 0 0-5 2.68l-.43.3-.48-.23c-11.18-5.53-25-7.06-41.4-4.45a95.28 95.28 0 0 0-15.82 3.94l-.83.32-.87-.36A91.92 91.92 0 0 0 507.27 83a80.47 80.47 0 0 0-14.56-1.33c-13.5 0-24.8 3.52-33.6 10.45-.78.6-1.52 1.26-2.24 1.92l-.6.54-.6-.54c-8.38-7.6-19.82-11.38-34.12-11.38a97.37 97.37 0 0 0-13.95 1 79.43 79.43 0 0 0-12.11 2.6 20.27 20.27 0 0 0-9.72 6.52l-.58.7-.7-.62c-7.56-6.76-17.46-10.2-29.44-10.2a47 47 0 0 0-15.16 2.43c-.65.2-1.3.45-1.92.7l-.32.12-.32-.13a20.65 20.65 0 0 0-5-1.26c-1.1-.13-2.16-.24-3.2-.3a49.41 49.41 0 0 0-7 0c-1.06.07-2.17.17-3.3.3a20.35 20.35 0 0 0-14.25 8.69l-.54.78-.74-.6a49.83 49.83 0 0 0-9.29-5.81 56 56 0 0 0-45.8 0 61.27 61.27 0 0 0-2.55 1.31l-.5.28-.46-.37a20.41 20.41 0 0 0-9.78-4.2 32.53 32.53 0 0 0-4.61-.34h-1.43A49 49 0 0 0 215.45 86l-.3.08-.3-.12a20.7 20.7 0 0 0-5.41-1.44 65.48 65.48 0 0 0-3.18-.31 49.41 49.41 0 0 0-7 0c-1.06.07-2.16.17-3.3.3a20.35 20.35 0 0 0-14.25 8.69l-.54.78-.74-.6a49.83 49.83 0 0 0-9.29-5.81 56 56 0 0 0-45.8 0 50.77 50.77 0 0 0-4.93 2.7l-.55.34-.5-.42a20.29 20.29 0 0 0-6.57-3.82 66.33 66.33 0 0 0-11.22-2.65 86.46 86.46 0 0 0-13.45-1 57.74 57.74 0 0 0-23.41 4.63 50.76 50.76 0 0 0-18.17 13.33A55.2 55.2 0 0 0 36 119.5a67.92 67.92 0 0 0-3.28 21.3c0 17.6 5 31.74 14.77 42.07 10.1 10.63 24.1 16 41.63 16a74.43 74.43 0 0 0 13.78-1.2 73.62 73.62 0 0 0 11.21-3 20.3 20.3 0 0 0 5.65-3.14l.48-.38.52.32a52.94 52.94 0 0 0 4.59 2.49 56 56 0 0 0 45.8 0 49.06 49.06 0 0 0 9.28-5.8l.74-.6.54.78a20.18 20.18 0 0 0 13.44 8.56 41 41 0 0 0 4.81.46c1.45.07 2.5.1 3.17.1s1.9 0 3.33-.1a41.78 41.78 0 0 0 4.64-.46 20.35 20.35 0 0 0 16.92-18l.24-2.3 1.36 1.9 1.35 1.8A48.27 48.27 0 0 0 248.29 194a56 56 0 0 0 45.8 0 49.78 49.78 0 0 0 9.29-5.8l.74-.6.53.78a20.18 20.18 0 0 0 13.45 8.56 40.58 40.58 0 0 0 4.8.46c1.45.07 2.5.1 3.18.1s1.9 0 3.32-.1a41.25 41.25 0 0 0 4.65-.46 20.32 20.32 0 0 0 15.27-11.78l.8-1.8.8 1.8a20.31 20.31 0 0 0 15.26 11.78 41 41 0 0 0 4.81.46c1.45.07 2.5.1 3.17.1s1.9 0 3.33-.1a41.54 41.54 0 0 0 4.64-.46 20.24 20.24 0 0 0 10.38-5.05l.48-.43.57.32c8.06 4.73 18 7.13 29.54 7.13a117.65 117.65 0 0 0 16.26-1.19c5.15-.72 9.46-1.43 13.2-2.18a20.07 20.07 0 0 0 3.92-1.22l.32-.13.32.1c2.14.76 3.85 1.32 5.4 1.75a88.68 88.68 0 0 0 6.85 1.59 71.84 71.84 0 0 0 7.68 1c2.38.18 5 .27 7.75.27a64 64 0 0 0 19.65-2.92 52.72 52.72 0 0 0 14.77-7.39l.53-.38.52.4 1.58 1.16a48.59 48.59 0 0 0 17.65 7.4 85 85 0 0 0 17.44 1.71 102.5 102.5 0 0 0 20-1.81 133.9 133.9 0 0 0 14.07-3.51l.75-.26.66-.25.38.28a20.1 20.1 0 0 0 8.57 3.58 79.56 79.56 0 0 0 26.62 0 20.17 20.17 0 0 0 14.56-10.44z" fill="#b21936"/><path d="M105 167.8a20.55 20.55 0 0 1 1.35 3.82l.92 4a51.73 51.73 0 0 1-8.07 2.12 54.19 54.19 0 0 1-10 .85q-17.7 0-26.88-9.7-9.2-9.7-9.25-28.1a47.39 47.39 0 0 1 2.26-14.93 34.85 34.85 0 0 1 6.65-12 30.32 30.32 0 0 1 11-8A37.48 37.48 0 0 1 88.15 103a65 65 0 0 1 10.26.78 45.83 45.83 0 0 1 7.71 1.76 21.48 21.48 0 0 1-.5 4.25 23 23 0 0 1-1.06 3.82 43.3 43.3 0 0 0-7.14-1.7 57.58 57.58 0 0 0-9.27-.71 26.24 26.24 0 0 0-11.1 2.19 21.77 21.77 0 0 0-7.92 6.16 26.2 26.2 0 0 0-4.74 9.33 42.62 42.62 0 0 0-1.56 11.89q0 15.27 7.3 22.42 7.3 7.15 19.73 7.14a44.56 44.56 0 0 0 8.13-.71 42 42 0 0 0 7.02-1.81zm43.27 10.76a32.45 32.45 0 0 1-14.15-2.9 28.1 28.1 0 0 1-10.11-8 34.22 34.22 0 0 1-6-12 56.72 56.72 0 0 1 0-29.71 34.22 34.22 0 0 1 6-12 28.1 28.1 0 0 1 10.11-8 32.59 32.59 0 0 1 14.15-2.9 32.11 32.11 0 0 1 14.07 2.9 28.23 28.23 0 0 1 10 8 35.2 35.2 0 0 1 6.08 12 54.85 54.85 0 0 1 0 29.71 35.2 35.2 0 0 1-6.08 12 28.23 28.23 0 0 1-10 8 32 32 0 0 1-14.07 2.9zm0-8.2q11.3 0 16.9-7.92 5.6-7.92 5.6-21.64 0-13.73-5.6-21.65-5.6-7.92-16.9-7.92-11.33 0-16.9 7.92-5.58 7.92-5.58 21.65 0 13.7 5.58 21.64 5.58 7.93 16.9 7.92zm50.23-65.64q1.13-.14 2.2-.2l2-.07 2.12.07 2.12.2q.28 2.55.43 6 .15 3.45.14 6.3a25.79 25.79 0 0 1 7.92-8.84c3.4-2.4 7.87-3.6 13.44-3.6h1.48a13.32 13.32 0 0 1 1.77.14 26.57 26.57 0 0 1 .43 4.53 22.61 22.61 0 0 1-.43 4.39 14.22 14.22 0 0 0-1.77-.15H229q-9.6 0-15.42 6.1-5.8 6.1-5.8 20.23v37.06a22.84 22.84 0 0 1-2.33.21c-1 0-1.77.07-2.34.07s-1.22 0-2.26-.07a23.18 23.18 0 0 1-2.4-.21zm72.7 73.84a32.41 32.41 0 0 1-14.14-2.9 28 28 0 0 1-10.12-8 34.38 34.38 0 0 1-6-12 56.72 56.72 0 0 1 0-29.71 34.38 34.38 0 0 1 6-12 28 28 0 0 1 10.12-8 32.55 32.55 0 0 1 14.14-2.9 32.12 32.12 0 0 1 14.08 2.9 28.28 28.28 0 0 1 10 8 35.2 35.2 0 0 1 6.08 12 54.85 54.85 0 0 1 0 29.71 35.2 35.2 0 0 1-6.08 12 28.28 28.28 0 0 1-10 8 32 32 0 0 1-14.08 2.9zm0-8.2q11.32 0 16.9-7.92 5.6-7.92 5.58-21.64 0-13.73-5.58-21.65-5.58-7.92-16.9-7.92-11.3 0-16.9 7.92-5.6 7.92-5.6 21.65 0 13.7 5.6 21.64 5.6 7.93 16.9 7.92zm50.2-65.64q1.13-.14 2.2-.2l2-.07 2.12.07 2.12.2q.28 2.55.43 6.37l.14 6.65a30.85 30.85 0 0 1 3.68-5.17 28.49 28.49 0 0 1 5.3-4.73 27.63 27.63 0 0 1 7-3.47 26.5 26.5 0 0 1 8.62-1.34q12.45 0 18.1 7.42 5.66 7.42 5.66 20.87v45.55c-.57.1-1.35.16-2.33.2l-2.34.07c-.57 0-1.23 0-2.26-.07a23.7 23.7 0 0 1-2.41-.21v-42.72q0-12-3.75-17.26-3.75-5.26-11.24-5.23a22.43 22.43 0 0 0-9.34 2 21.55 21.55 0 0 0-7.57 5.72 27.75 27.75 0 0 0-5 9.27 40 40 0 0 0-1.84 12.59v35.65a22.84 22.84 0 0 1-2.33.21l-2.33.07c-.56 0-1.23 0-2.27-.07a23.18 23.18 0 0 1-2.4-.21zm117.84 24.48q0-9.34-4.4-13.66-4.4-4.32-13-4.3a62.94 62.94 0 0 0-10.33.78 63.9 63.9 0 0 0-8.34 1.91 13.34 13.34 0 0 1-1.21-3.68 22.45 22.45 0 0 1-.49-4.53 60.67 60.67 0 0 1 9-1.9 76.83 76.83 0 0 1 11-.78q13.7 0 20.37 6 6.66 6 6.64 18.88v47.67q-4.95 1-12 2a97.1 97.1 0 0 1-13.44 1q-13.16 0-20.72-5.23-7.56-5.23-7.57-17a22.52 22.52 0 0 1 2.2-10.11 21.19 21.19 0 0 1 6.08-7.49 27 27 0 0 1 9.33-4.6 43.33 43.33 0 0 1 12-1.56q5.08 0 8.77.35l6.08.64zm0 12.6q-2.42-.28-6-.64l-6.86-.35q-10.62 0-16.4 4a12.87 12.87 0 0 0-5.8 11.31 14 14 0 0 0 1.77 7.5 11.78 11.78 0 0 0 4.59 4.31 19.28 19.28 0 0 0 6.23 2 45.53 45.53 0 0 0 6.79.5 75.11 75.11 0 0 0 8.2-.42l7.5-1.14zm41.6 3.2q-7.93-2.26-12.38-6.72Q464 133.82 464 125q0-10.74 7.7-16.83 7.7-6.1 21-6.08a60 60 0 0 1 10.89 1 69.67 69.67 0 0 1 10.89 3 39 39 0 0 1-1.41 7.64 36.85 36.85 0 0 1-2.69 6.93 56.35 56.35 0 0 0-7.5-2.48 34.64 34.64 0 0 0-8.63-1.06 15.63 15.63 0 0 0-7.49 1.49 5 5 0 0 0-2.69 4.74c0 2.07.63 3.53 1.9 4.38a22.48 22.48 0 0 0 5.44 2.41l8.07 2.4a39.48 39.48 0 0 1 7.14 2.76 19.75 19.75 0 0 1 5.45 4 17 17 0 0 1 3.53 5.94 25.57 25.57 0 0 1 1.28 8.63 22 22 0 0 1-2.2 9.76 22.44 22.44 0 0 1-6.36 7.85 31.32 31.32 0 0 1-10.12 5.23 43.6 43.6 0 0 1-13.43 1.91c-2.27 0-4.34-.07-6.23-.2a50.75 50.75 0 0 1-5.44-.7q-2.62-.5-5.17-1.2-2.55-.7-5.5-1.84a40 40 0 0 1 1.34-7.71 48.87 48.87 0 0 1 2.76-7.56 59 59 0 0 0 8.84 2.75 39.86 39.86 0 0 0 8.7.92 28.24 28.24 0 0 0 4.31-.35 15.71 15.71 0 0 0 4.32-1.27A10.37 10.37 0 0 0 496 159a5.54 5.54 0 0 0 1.34-3.89q0-3.4-2.05-4.88a19.55 19.55 0 0 0-5.72-2.61zm84.6-16.23a11.6 11.6 0 0 0-1.14-5.51 8.4 8.4 0 0 0-3.11-3.33 13.11 13.11 0 0 0-4.88-1.63 45.12 45.12 0 0 0-6.44-.42 50 50 0 0 0-16.26 3 37.48 37.48 0 0 1-3-6.93 26.91 26.91 0 0 1-1-7.78 76.61 76.61 0 0 1 24-4.1q14.72 0 23 7.07 8.28 7.07 8.28 22.63v42.44a117 117 0 0 1-12 3 82.09 82.09 0 0 1-16 1.41 63.89 63.89 0 0 1-13.23-1.27 28.42 28.42 0 0 1-10.33-4.24 20 20 0 0 1-6.64-7.64 25.38 25.38 0 0 1-2.28-11.47 21 21 0 0 1 2.9-11.39 22.33 22.33 0 0 1 7.5-7.35 33 33 0 0 1 10.26-4 54.28 54.28 0 0 1 11.31-1.2l9.06.42zm0 14.57l-3.68-.5a34.17 34.17 0 0 0-3.54-.22q-6.93 0-11 2.48-4.07 2.48-4 8a9 9 0 0 0 1.55 5.66 9.3 9.3 0 0 0 3.75 2.9 15.44 15.44 0 0 0 4.67 1.13l4.3.2a25.39 25.39 0 0 0 4.25-.35l3.68-.64zM604.74 119h-11.6a41.18 41.18 0 0 1-.57-4.1l-.14-3.82.14-3.54a36.66 36.66 0 0 1 .57-3.82h11.6v-3.52a33.33 33.33 0 0 1 2-12.1 23.86 23.86 0 0 1 5.87-8.91 26.11 26.11 0 0 1 9.12-5.52 34.34 34.34 0 0 1 11.67-1.91 61.77 61.77 0 0 1 7.15.36 39.16 39.16 0 0 1 6.29 1.34 78.3 78.3 0 0 1-.92 8.42 38.48 38.48 0 0 1-2.05 7.42l-3.25-.63a22.82 22.82 0 0 0-4.53-.35 13 13 0 0 0-8.06 2.33q-3.12 2.34-3.4 10v3.1h17a38 38 0 0 1 .56 4.11l.15 3.82-.15 3.53a33.62 33.62 0 0 1-.56 3.82h-17v57.86a60.71 60.71 0 0 1-9.9.84 61.56 61.56 0 0 1-10-.84zm60.12 27.45q.55 8.5 5.94 12.3 5.4 3.82 14.14 3.82a54.77 54.77 0 0 0 9.83-.92 55.62 55.62 0 0 0 9.55-2.62 33.12 33.12 0 0 1 2.69 6.79 34.76 34.76 0 0 1 1.27 8.49 68.86 68.86 0 0 1-24.89 4.24 48.4 48.4 0 0 1-17.47-2.82 31.08 31.08 0 0 1-11.92-7.86 31.47 31.47 0 0 1-6.78-11.95 52.36 52.36 0 0 1 .07-30.27 35.29 35.29 0 0 1 6.71-12.31 32 32 0 0 1 11-8.27 36.19 36.19 0 0 1 15.35-3 32.66 32.66 0 0 1 13.65 2.64 30.05 30.05 0 0 1 10.11 7.36 30.91 30.91 0 0 1 6.29 11.1 43.69 43.69 0 0 1 2.13 13.8l-.22 5.3-.5 4.17zm28.7-14q-.3-6.8-3.75-11-3.46-4.2-9.7-4.18c-4.7 0-8.3 1.33-10.75 4s-3.9 6.37-4.38 11.18z"/><defs ><path id="B" d="M734.2 127.92a52.21 52.21 0 0 0-10.3-18.79 51.39 51.39 0 0 0-17-12.85 54 54 0 0 0-22.24-5 63 63 0 0 0-13.06 1.09l.82-7.36a21.21 21.21 0 0 0-14.86-21.93 61.07 61.07 0 0 0-9.64-2.21 80.23 80.23 0 0 0-9.69-.67 55.28 55.28 0 0 0-18.9 2.83 46.89 46.89 0 0 0-16.68 9.77 45.06 45.06 0 0 0-11.39 16.48l-1.2 3.34a21.12 21.12 0 0 0-5.23 2.71c-7.65-4-16.62-6.08-26.88-6.26a97.44 97.44 0 0 0-31 4.7c-.2.06-.36.13-.54.2-.2-.08-.4-.18-.6-.25a91.3 91.3 0 0 0-14.15-4.12A81.34 81.34 0 0 0 497 88.05c-13.7-.24-25.25 3.14-34.33 10a48.05 48.05 0 0 0-2.32 1.91l-.1-.1c-8.3-7.77-19.87-11.84-34.4-12.1a97.93 97.93 0 0 0-14.08.75A80.59 80.59 0 0 0 399.47 91a21.13 21.13 0 0 0-10.26 6.63c-6.06-5.62-15.48-10.7-29.84-11a47.69 47.69 0 0 0-15.49 2.2l-2 .66a21.06 21.06 0 0 0-5.15-1.4 71.82 71.82 0 0 0-3.23-.38 51.44 51.44 0 0 0-7.11-.12 58.79 58.79 0 0 0-3.36.26 21.15 21.15 0 0 0-15 8.8 50.64 50.64 0 0 0-9.36-6.08 56.84 56.84 0 0 0-46.55-.85c-.9.4-1.76.83-2.62 1.28a21.06 21.06 0 0 0-10.12-4.56 32 32 0 0 0-4.73-.43h-1.48a50 50 0 0 0-13.72 1.56 21.44 21.44 0 0 0-5.61-1.6 58.28 58.28 0 0 0-3.23-.37 49.86 49.86 0 0 0-7.11-.13c-1.08.06-2.2.14-3.35.27a21.19 21.19 0 0 0-15 8.79 50.56 50.56 0 0 0-9.35-6.08 56.89 56.89 0 0 0-46.55-.84 48.66 48.66 0 0 0-5.07 2.65 21.26 21.26 0 0 0-6.79-4.1 66.59 66.59 0 0 0-11.32-2.88A86.37 86.37 0 0 0 92.49 82a58.81 58.81 0 0 0-23.85 4.28A51.69 51.69 0 0 0 49.93 99.5a56.1 56.1 0 0 0-11 19 68.64 68.64 0 0 0-3.76 21.5c-.3 17.82 4.5 32.27 14.27 42.94 10.07 11 24.2 16.73 42 17a75.53 75.53 0 0 0 14-1 72.7 72.7 0 0 0 11.39-2.81 21.15 21.15 0 0 0 6-3.17 51.91 51.91 0 0 0 4.62 2.61 56.91 56.91 0 0 0 46.56.78 50.46 50.46 0 0 0 9.55-5.75 21.14 21.14 0 0 0 13.87 9.18 42.33 42.33 0 0 0 4.9.56l3.2.15c.67.02 1.92 0 3.37 0a40.67 40.67 0 0 0 4.75-.39 21.2 21.2 0 0 0 18-18.48c.44.63.88 1.25 1.34 1.85a49.24 49.24 0 0 0 17.37 14.28 56.81 56.81 0 0 0 46.56.78 49.8 49.8 0 0 0 9.55-5.74 21.24 21.24 0 0 0 13.76 9.21 42.61 42.61 0 0 0 4.89.55 63.2 63.2 0 0 0 3.21.15c.67.01 1.92 0 3.37 0a41.23 41.23 0 0 0 4.77-.38 21.22 21.22 0 0 0 16.13-12 21.2 21.2 0 0 0 15.71 12.56 40.48 40.48 0 0 0 4.9.56q2.2.13 3.2.15h3.37a41.22 41.22 0 0 0 4.76-.38 21.19 21.19 0 0 0 10.92-5.21c8.1 4.94 18.1 7.56 29.86 7.77a119.8 119.8 0 0 0 16.4-.91c5.18-.63 9.52-1.27 13.27-2a21.53 21.53 0 0 0 4.12-1.21c1.86.7 3.7 1.34 5.42 1.86a89.83 89.83 0 0 0 6.88 1.73 71.56 71.56 0 0 0 7.77 1.15c2.4.22 5 .36 7.8.4a65.42 65.42 0 0 0 20-2.58 53.6 53.6 0 0 0 15.11-7.22c.53.4 1 .83 1.6 1.22a49.65 49.65 0 0 0 17.83 7.84 85.11 85.11 0 0 0 17.58 2 103 103 0 0 0 20.17-1.47 136.09 136.09 0 0 0 14.3-3.29c.35-.1.68-.23 1-.34a21.18 21.18 0 0 0 8.87 3.89 80.41 80.41 0 0 0 26.91.47 21.17 21.17 0 0 0 15.38-10.63 53.93 53.93 0 0 0 14.72 8.88 69.34 69.34 0 0 0 25.08 4.7 90.24 90.24 0 0 0 32.6-5.09 21.21 21.21 0 0 0 14-20.24 57.24 57.24 0 0 0-1.67-13 21.19 21.19 0 0 0 5.29-10.35c.34-1.74.63-3.77.87-6.2a84.26 84.26 0 0 0 .4-7 65 65 0 0 0-2.86-20.47z"/></defs></svg>