<?xml version="1.0" encoding="UTF-8"?>
<svg width="85px" height="24px" viewBox="0 0 85 24" version="1.1" xmlns="http://www.w3.org/2000/svg" xmlns:xlink="http://www.w3.org/1999/xlink">
    <g id="Page-1" stroke="none" stroke-width="1" fill="none" fill-rule="evenodd">
        <g id="2" transform="translate(-20.000000, -87.000000)" fill-rule="nonzero">
            <g id="Swasth-branding_final" transform="translate(20.000000, 87.000000)">
                <g id="Group-7">
                    <path d="M4.13243077,0 L19.8468923,0 C22.1291708,0 23.9793231,1.85015228 23.9793231,4.13243077 L23.9793231,19.8468923 C23.9793231,22.1291708 22.1291708,23.9793231 19.8468923,23.9793231 L4.13243077,23.9793231 C1.85015228,23.9793231 0,22.1291708 0,19.8468923 L0,4.13243077 C0,1.85015228 1.85015228,0 4.13243077,0 Z" id="Rectangle" fill="#1549E1"></path>
                    <path d="M14.9065846,10.4359385 L14.9065846,3.93747692 C14.9065846,3.44806767 14.50984,3.05132308 14.0204308,3.05132308 L9.95889231,3.05132308 C9.46948305,3.05132308 9.07273846,3.44806767 9.07273846,3.93747692 L9.07273846,10.4359385 L14.9065846,10.4359385 Z" id="Path" fill="#FF7217"></path>
                    <path d="M9.07273846,13.1682462 L9.07273846,20.0359385 C9.07273846,20.5253477 9.46948305,20.9220923 9.95889231,20.9220923 L14.0204308,20.9220923 C14.50984,20.9220923 14.9065846,20.5253477 14.9065846,20.0359385 L14.9065846,13.1682462 L9.07273846,13.1682462 Z" id="Path" fill="#12BB00"></path>
                    <path d="M20.9250462,9.95889231 L20.9250462,14.0204308 C20.9250462,14.50984 20.5283016,14.9065846 20.0388923,14.9065846 L3.94043077,14.9065846 C3.45102151,14.9065846 3.05427692,14.50984 3.05427692,14.0204308 L3.05427692,9.95889231 C3.05427692,9.46948305 3.45102151,9.07273846 3.94043077,9.07273846 L20.0388923,9.07273846 C20.5283016,9.07273846 20.9250462,9.46948305 20.9250462,9.95889231 Z" id="Rectangle" fill="#FFFFFF"></path>
                </g>
                <path d="M35.4859943,9.23109594 C36.8417183,9.23109594 38.0143162,9.84988502 38.6670722,11.0032842 L36.8254732,12.0075243 C36.5955615,11.4758343 36.0650384,11.1377501 35.4859943,11.1539202 C34.9513841,11.1539202 34.5157212,11.3887352 34.5157212,11.8406432 C34.517198,13.0782213 38.8339533,12.3117499 38.8339533,15.3879734 C38.8339533,17.1956055 37.2611362,18.0654545 35.4697492,18.0654545 C33.7965081,18.0654545 32.5574531,17.3624865 31.9549091,16.0746964 L33.8289982,15.0202443 C34.0638132,15.7054905 34.6323902,16.1071865 35.4697492,16.1071865 C36.1564722,16.1071865 36.6246252,15.8723715 36.6246252,15.3879734 C36.6246252,14.1651635 32.3063931,14.8356414 32.3063931,11.8893784 C32.3063931,10.1821703 33.7625411,9.23109594 35.4859943,9.23109594 Z M56.1600474,9.22814229 C57.3813805,9.22814229 58.2851966,9.69629536 58.8877406,10.4509522 L58.8877406,9.46295724 L61.0468566,9.46295724 L61.0468566,17.8306396 L58.8877406,17.8306396 L58.8877406,16.8441215 C58.2851966,17.5973015 57.3813805,18.0654545 56.1600474,18.0654545 C53.9329975,18.0654545 52.0928753,16.1455839 52.0928753,13.6467984 C52.0928753,11.1480129 53.9329975,9.22814229 56.1600474,9.22814229 Z M65.9085598,9.23109594 C67.2642839,9.23109594 68.435405,9.84988502 69.088161,11.0032842 L67.2480388,12.0075243 C67.0178019,11.4761115 66.4874901,11.1381619 65.9085598,11.1539202 C65.3724729,11.1539202 64.9382867,11.3887352 64.9382867,11.8406432 C64.9309026,13.0782213 69.2565189,12.3117499 69.2565189,15.3879734 C69.2565189,17.1956055 67.6822249,18.0654545 65.8923148,18.0654545 C64.2175968,18.0654545 62.9800187,17.3624865 62.3774747,16.0746964 L64.2515638,15.0202443 C64.4863787,15.7054905 65.0549558,16.1071865 65.8923148,16.1071865 C66.5775609,16.1071865 67.0471908,15.8723715 67.0471908,15.3879734 C67.0471908,14.1651635 62.7289587,14.8356414 62.7289587,11.8893784 C62.7289587,10.1821703 64.1851067,9.23109594 65.9085598,9.23109594 Z M73.2823399,7.11923823 L73.2823399,9.46295724 L75.1741509,9.46295724 L75.1741509,11.5378944 L73.2823399,11.5378944 L73.2823399,15.0202443 C73.2823399,15.9225835 73.9350959,15.9403054 75.1741509,15.8723715 L75.1741509,17.8306396 C72.1451858,18.1658785 71.1232239,17.2783076 71.1232239,15.0246748 L71.1232239,11.5378944 L69.6670758,11.5378944 L69.6670758,9.46295724 L71.1232239,9.46295724 L71.1232239,7.77199425 L73.2823399,7.11923823 Z M41.4671297,9.45852677 L42.8893108,14.596396 L44.4119159,9.45852677 L46.4543629,9.45852677 L47.976968,14.612641 L49.4006259,9.45852677 L51.6897025,9.46295724 L49.0314201,17.8306396 L46.9712512,17.8306396 L45.4309242,12.754797 L43.8905972,17.8262091 L41.8319051,17.8262091 L39.1736227,9.45852677 L41.4671297,9.45852677 Z M78.8558721,6.10909091 L78.8558721,10.3918793 C79.3579921,9.64017607 80.2278412,9.22075817 81.3487503,9.22075817 C83.125369,9.22814229 84.5135832,10.4671973 84.5135832,12.6927704 L84.5135832,17.8306396 L82.3544671,17.8306396 L82.3544671,12.9571218 C82.3544671,11.8184908 81.669221,11.2321919 80.6974711,11.2321919 C79.643019,11.2321919 78.8573489,11.850981 78.8573489,13.3086058 L78.8573489,17.8262091 L76.6982328,17.8262091 L76.6982328,6.10909091 L78.8558721,6.10909091 Z M56.5617434,11.2779734 C55.2222645,11.2779734 54.2519914,12.2320014 54.2519914,13.6408911 C54.2519914,15.0497808 55.2399863,16.0038088 56.5617434,16.0038088 C57.8835005,16.0038088 58.8877406,15.0527345 58.8877406,13.6408911 C58.8877406,12.2349551 57.9012224,11.2779734 56.5617434,11.2779734 Z" id="Combined-Shape" fill="#1549E1"></path>
            </g>
        </g>
    </g>
</svg>
