<?xml version="1.0" encoding="utf-8"?>
<svg version="1.1" id="Layer_1" xmlns="http://www.w3.org/2000/svg" xmlns:xlink="http://www.w3.org/1999/xlink" x="0px" y="0px"
	 viewBox="0 0 1000 1000" style="enable-background:new 0 0 1000 1000;" xml:space="preserve">
<style type="text/css">
	.st0{fill:rgba(0,0,0,0);}
	.st1{fill:#E4E8EC;}
	.st2{fill:#606060;}
	.st3{fill:#4BE080;}
	.st4{fill:#4ACC8A;}
	.st5{fill:none;stroke:#441A36;stroke-width:6;stroke-linecap:round;stroke-linejoin:round;stroke-miterlimit:10;}
	.st6{fill:#9DEDB8;}
	.st7{fill:#441A36;}
	.st8{fill:#FFC417;}
	.st9{fill:#FF4F7C;}
	.st10{fill:#F2F2F2;}
</style>
<rect class="st0" width="1000" height="1000"/>
<ellipse class="st1" cx="500" cy="878.6" rx="207.5" ry="22.6"/>
<g>
	<g>
		<g>
			<g>
				<path class="st3" d="M468.8,793.7c0,17.2,14,31.2,31.2,31.2s31.2-14,31.2-31.2c0-13-8-24.2-19.3-28.8V714h-23.7v50.9
					C476.8,769.5,468.8,780.7,468.8,793.7z"/>
				<rect x="488.1" y="714" class="st4" width="23.7" height="21.2"/>
				<path class="st5" d="M468.8,793.7c0,17.2,14,31.2,31.2,31.2s31.2-14,31.2-31.2c0-13-8-24.2-19.3-28.8V714h-23.7v50.9
					C476.8,769.5,468.8,780.7,468.8,793.7z"/>
				<ellipse class="st6" cx="497.7" cy="808.4" rx="11.2" ry="6.2"/>
			</g>
			<g>
				<path class="st3" d="M531.2,206.3c0-17.2-14-31.2-31.2-31.2s-31.2,14-31.2,31.2c0,13,8,24.2,19.3,28.8V286h23.7v-50.9
					C523.2,230.5,531.2,219.3,531.2,206.3z"/>
				<rect x="488.1" y="264.8" class="st4" width="23.7" height="21.2"/>
				<path class="st5" d="M531.2,206.3c0-17.2-14-31.2-31.2-31.2s-31.2,14-31.2,31.2c0,13,8,24.2,19.3,28.8V286h23.7v-50.9
					C523.2,230.5,531.2,219.3,531.2,206.3z"/>
				<ellipse class="st6" cx="502.3" cy="191.6" rx="11.2" ry="6.2"/>
			</g>
		</g>
		<g>
			<g>
				<path class="st3" d="M619.9,769.9c8.6,14.9,27.7,20,42.6,11.4s20-27.7,11.4-42.6c-6.5-11.3-19-16.9-31.1-15.3l-25.4-44.1
					l-20.6,11.9l25.4,44.1C614.7,745,613.3,758.7,619.9,769.9z"/>
				
					<rect x="600.4" y="683.9" transform="matrix(0.866 -0.5 0.5 0.866 -265.2316 399.2062)" class="st4" width="23.7" height="21.2"/>
				<path class="st5" d="M619.9,769.9c8.6,14.9,27.7,20,42.6,11.4s20-27.7,11.4-42.6c-6.5-11.3-19-16.9-31.1-15.3l-25.4-44.1
					l-20.6,11.9l25.4,44.1C614.7,745,613.3,758.7,619.9,769.9z"/>
				<ellipse transform="matrix(0.866 -0.5 0.5 0.866 -296.7239 429.0346)" class="st6" cx="652.2" cy="768.2" rx="11.2" ry="6.2"/>
			</g>
			<g>
				<path class="st3" d="M380.1,230.1c-8.6-14.9-27.7-20-42.6-11.4s-20,27.7-11.4,42.6c6.5,11.3,19,16.9,31.1,15.3l25.4,44.1
					l20.6-11.9l-25.4-44.1C385.3,255,386.7,241.3,380.1,230.1z"/>
				
					<rect x="375.8" y="294.8" transform="matrix(0.866 -0.5 0.5 0.866 -100.7938 234.7684)" class="st4" width="23.7" height="21.2"/>
				<path class="st5" d="M380.1,230.1c-8.6-14.9-27.7-20-42.6-11.4s-20,27.7-11.4,42.6c6.5,11.3,19,16.9,31.1,15.3l25.4,44.1
					l20.6-11.9l-25.4-44.1C385.3,255,386.7,241.3,380.1,230.1z"/>
				<ellipse transform="matrix(0.866 -0.5 0.5 0.866 -69.3015 204.9399)" class="st6" cx="347.8" cy="231.8" rx="11.2" ry="6.2"/>
			</g>
		</g>
		<g>
			<g>
				<path class="st3" d="M738.8,673.9c14.9,8.6,34,3.5,42.6-11.4s3.5-34-11.4-42.6c-11.3-6.5-24.9-5.2-34.6,2.3l-44.1-25.4
					l-11.9,20.6l44.1,25.4C721.8,654.9,727.5,667.3,738.8,673.9z"/>
				
					<rect x="682.7" y="601.7" transform="matrix(0.5 -0.866 0.866 0.5 -183.0127 907.639)" class="st4" width="23.7" height="21.2"/>
				<path class="st5" d="M738.8,673.9c14.9,8.6,34,3.5,42.6-11.4s3.5-34-11.4-42.6c-11.3-6.5-24.9-5.2-34.6,2.3l-44.1-25.4
					l-11.9,20.6l44.1,25.4C721.8,654.9,727.5,667.3,738.8,673.9z"/>
				<ellipse transform="matrix(0.5 -0.866 0.866 0.5 -185.2855 991.4045)" class="st6" cx="765.9" cy="656.2" rx="11.2" ry="6.2"/>
			</g>
			<g>
				<path class="st3" d="M261.2,326.1c-14.9-8.6-34-3.5-42.6,11.4s-3.5,34,11.4,42.6c11.3,6.5,24.9,5.2,34.6-2.3l44.1,25.4
					l11.9-20.6l-44.1-25.4C278.2,345.1,272.5,332.7,261.2,326.1z"/>
				
					<rect x="293.6" y="377.1" transform="matrix(0.5 -0.866 0.866 0.5 -183.0127 458.3864)" class="st4" width="23.7" height="21.2"/>
				<path class="st5" d="M261.2,326.1c-14.9-8.6-34-3.5-42.6,11.4s-3.5,34,11.4,42.6c11.3,6.5,24.9,5.2,34.6-2.3l44.1,25.4
					l11.9-20.6l-44.1-25.4C278.2,345.1,272.5,332.7,261.2,326.1z"/>
				<ellipse transform="matrix(0.5 -0.866 0.866 0.5 -180.7399 374.6208)" class="st6" cx="234.1" cy="343.8" rx="11.2" ry="6.2"/>
			</g>
		</g>
		<g>
			<g>
				<path class="st3" d="M793.7,531.2c17.2,0,31.2-14,31.2-31.2s-14-31.2-31.2-31.2c-13,0-24.2,8-28.8,19.3H714v23.7h50.9
					C769.5,523.2,780.7,531.2,793.7,531.2z"/>
				<rect x="714" y="488.1" class="st4" width="21.2" height="23.7"/>
				<path class="st5" d="M793.7,531.2c17.2,0,31.2-14,31.2-31.2s-14-31.2-31.2-31.2c-13,0-24.2,8-28.8,19.3H714v23.7h50.9
					C769.5,523.2,780.7,531.2,793.7,531.2z"/>
				<ellipse class="st6" cx="808.4" cy="502.3" rx="6.2" ry="11.2"/>
			</g>
			<g>
				<path class="st3" d="M206.3,468.8c-17.2,0-31.2,14-31.2,31.2s14,31.2,31.2,31.2c13,0,24.2-8,28.8-19.3H286v-23.7h-50.9
					C230.5,476.8,219.3,468.8,206.3,468.8z"/>
				<rect x="264.8" y="488.1" class="st4" width="21.2" height="23.7"/>
				<path class="st5" d="M206.3,468.8c-17.2,0-31.2,14-31.2,31.2s14,31.2,31.2,31.2c13,0,24.2-8,28.8-19.3H286v-23.7h-50.9
					C230.5,476.8,219.3,468.8,206.3,468.8z"/>
				<ellipse class="st6" cx="191.6" cy="497.7" rx="6.2" ry="11.2"/>
			</g>
		</g>
		<g>
			<g>
				<path class="st3" d="M769.9,380.1c14.9-8.6,20-27.7,11.4-42.6s-27.7-20-42.6-11.4c-11.3,6.5-16.9,19-15.3,31.1l-44.1,25.4
					l11.9,20.6l44.1-25.4C745,385.3,758.7,386.7,769.9,380.1z"/>
				
					<rect x="683.9" y="375.8" transform="matrix(0.866 -0.5 0.5 0.866 -100.7938 399.2062)" class="st4" width="21.2" height="23.7"/>
				<path class="st5" d="M769.9,380.1c14.9-8.6,20-27.7,11.4-42.6s-27.7-20-42.6-11.4c-11.3,6.5-16.9,19-15.3,31.1l-44.1,25.4
					l11.9,20.6l44.1-25.4C745,385.3,758.7,386.7,769.9,380.1z"/>
				<ellipse transform="matrix(0.866 -0.5 0.5 0.866 -70.9654 430.6985)" class="st6" cx="768.2" cy="347.8" rx="6.2" ry="11.2"/>
			</g>
			<g>
				<path class="st3" d="M230.1,619.9c-14.9,8.6-20,27.7-11.4,42.6s27.7,20,42.6,11.4c11.3-6.5,16.9-19,15.3-31.1l44.1-25.4
					l-11.9-20.6l-44.1,25.4C255,614.7,241.3,613.3,230.1,619.9z"/>
				
					<rect x="294.8" y="600.4" transform="matrix(0.866 -0.5 0.5 0.866 -265.2316 234.7684)" class="st4" width="21.2" height="23.7"/>
				<path class="st5" d="M230.1,619.9c-14.9,8.6-20,27.7-11.4,42.6s27.7,20,42.6,11.4c11.3-6.5,16.9-19,15.3-31.1l44.1-25.4
					l-11.9-20.6l-44.1,25.4C255,614.7,241.3,613.3,230.1,619.9z"/>
				<ellipse transform="matrix(0.866 -0.5 0.5 0.866 -295.0601 203.2761)" class="st6" cx="231.8" cy="652.2" rx="6.2" ry="11.2"/>
			</g>
		</g>
		<g>
			<g>
				<path class="st3" d="M673.9,261.2c8.6-14.9,3.5-34-11.4-42.6s-34-3.5-42.6,11.4c-6.5,11.3-5.2,24.9,2.3,34.6l-25.4,44.1
					l20.6,11.9l25.4-44.1C654.9,278.2,667.3,272.5,673.9,261.2z"/>
				<rect x="601.7" y="293.6" transform="matrix(0.5 -0.866 0.866 0.5 41.6136 683.0127)" class="st4" width="21.2" height="23.7"/>
				<path class="st5" d="M673.9,261.2c8.6-14.9,3.5-34-11.4-42.6s-34-3.5-42.6,11.4c-6.5,11.3-5.2,24.9,2.3,34.6l-25.4,44.1
					l20.6,11.9l25.4-44.1C654.9,278.2,667.3,272.5,673.9,261.2z"/>
				<ellipse transform="matrix(0.5 -0.866 0.866 0.5 125.3792 685.2855)" class="st6" cx="656.2" cy="234.1" rx="6.2" ry="11.2"/>
			</g>
			<g>
				<path class="st3" d="M326.1,738.8c-8.6,14.9-3.5,34,11.4,42.6s34,3.5,42.6-11.4c6.5-11.3,5.2-24.9-2.3-34.6l25.4-44.1
					l-20.6-11.9l-25.4,44.1C345.1,721.8,332.7,727.5,326.1,738.8z"/>
				
					<rect x="377.1" y="682.7" transform="matrix(0.5 -0.866 0.866 0.5 -407.639 683.0127)" class="st4" width="21.2" height="23.7"/>
				<path class="st5" d="M326.1,738.8c-8.6,14.9-3.5,34,11.4,42.6s34,3.5,42.6-11.4c6.5-11.3,5.2-24.9-2.3-34.6l25.4-44.1
					l-20.6-11.9l-25.4,44.1C345.1,721.8,332.7,727.5,326.1,738.8z"/>
				<ellipse transform="matrix(0.5 -0.866 0.866 0.5 -491.4046 680.7399)" class="st6" cx="343.8" cy="765.9" rx="6.2" ry="11.2"/>
			</g>
		</g>
	</g>
	<g>
		<circle class="st3" cx="500" cy="500" r="221.4"/>
		<path class="st4" d="M646,333.6c34.5,39,55.4,90.3,55.4,146.5c0,122.3-99.1,221.4-221.4,221.4c-55.9,0-107-20.8-146-55
			c40.6,45.9,99.9,74.8,165.9,74.8c122.3,0,221.4-99.1,221.4-221.4C721.4,433.7,692.2,374.2,646,333.6z"/>
		<circle class="st5" cx="500" cy="500" r="221.4"/>
		<g>
			<path class="st7" d="M352.7,492.9c-21.9,18.9-29.5,80.1,36.1,131c71,55.1,195.7,47.5,244.4-17.7c24.6-33,26.9-86,10.1-97.9
				c-33.7-24-70.2,13.2-78.6,15.8c-20.4,6.3-48.5,7-88.9-9.5C426.7,494.6,383.8,466.1,352.7,492.9z"/>
			<path class="st8" d="M475.8,514.7c-12.8-5.2-25.1-11-36.9-16.2c-1.5,3.8-2,9.3-1.5,17.4c0.9,13.2,11.1,27.2,27.8,27.2
				c13,0,20.9-11.9,24.3-23.2C485.2,518.3,480.6,516.6,475.8,514.7z"/>
			<path class="st8" d="M411.5,521.1c14.8,0,26.2-10.6,29.4-21.8c-20.8-9.2-40-17-57.1-17.3c-0.4,3.2-0.5,7.1-0.2,11.9
				C384.5,507.1,394.7,521.1,411.5,521.1z"/>
			<path class="st8" d="M592.1,549.2c14.4-5.1,13.4-30.1,13.4-44.9c0-0.7,0-1.4,0-2c-16.6,4.6-30.7,16.1-37.7,20.4
				C568.7,537.1,578.8,553.9,592.1,549.2z"/>
			<path class="st8" d="M636.1,504.1c-10.4-4.8-20.9-4.5-30.5-1.9c0,0.6-0.1,1.3-0.1,2.1c-0.7,22.5,4.1,32.1,11.3,32.1
				C626.1,536.3,636.1,516.8,636.1,504.1z"/>
			<path class="st5" d="M475.8,514.7c-12.8-5.2-25.1-11-36.9-16.2c-1.5,3.8-2,9.3-1.5,17.4c0.9,13.2,11.1,27.2,27.8,27.2
				c13,0,20.9-11.9,24.3-23.2C485.2,518.3,480.6,516.6,475.8,514.7z"/>
			<path class="st5" d="M411.5,521.1c14.8,0,26.2-10.6,29.4-21.8c-20.8-9.2-40-17-57.1-17.3c-0.4,3.2-0.5,7.1-0.2,11.9
				C384.5,507.1,394.7,521.1,411.5,521.1z"/>
			<path class="st5" d="M592.1,549.2c14.4-5.1,13.4-30.1,13.4-44.9c0-0.7,0-1.4,0-2c-16.6,4.6-30.7,16.1-37.7,20.4
				C568.7,537.1,578.8,553.9,592.1,549.2z"/>
			<path class="st5" d="M636.1,504.1c-10.4-4.8-20.9-4.5-30.5-1.9c0,0.6-0.1,1.3-0.1,2.1c-0.7,22.5,4.1,32.1,11.3,32.1
				C626.1,536.3,636.1,516.8,636.1,504.1z"/>
			<path class="st5" d="M352.7,492.9c-21.9,18.9-29.5,80.1,36.1,131c71,55.1,195.7,47.5,244.4-17.7c24.6-33,26.9-86,10.1-97.9
				c-33.7-24-70.2,13.2-78.6,15.8c-20.4,6.3-48.5,7-88.9-9.5C426.7,494.6,383.8,466.1,352.7,492.9z"/>
			<path class="st9" d="M493.5,580.2c-6.5,0-12.8,1-18.7,3c-11.9-16.5-30.4-27.1-51.2-27.1c-27.1,0-50.4,18.1-60.2,43.8
				c6.8,8.1,15.2,16.2,25.3,24.1c11.9,9.3,25.4,16.8,39.8,22.5c0,0,0,0,0,0c0.9,0.3,1.8,0.7,2.6,1c0.4,0.2,0.8,0.3,1.2,0.5
				c1.6,0.6,3.3,1.2,4.9,1.7c0.5,0.2,1.1,0.4,1.7,0.6c1.5,0.5,3.1,1,4.6,1.5c0.3,0.1,0.5,0.2,0.8,0.2c1.7,0.5,3.4,1,5.1,1.4
				c0.5,0.1,1,0.3,1.5,0.4c1.8,0.5,3.6,0.9,5.4,1.3c0.1,0,0.3,0.1,0.4,0.1c1.7,0.4,3.5,0.8,5.2,1.1c0.4,0.1,0.9,0.2,1.3,0.3
				c1.8,0.4,3.7,0.7,5.6,1c0.2,0,0.3,0.1,0.5,0.1c1.7,0.3,3.5,0.6,5.3,0.8c0.4,0.1,0.8,0.1,1.2,0.2c1.9,0.3,3.8,0.5,5.7,0.7
				c0.1,0,0.1,0,0.2,0c0,0,0,0,0,0c26.1,2.8,52.8,0.9,77-5.8c0-0.8,0.1-1.7,0.1-2.5C558.6,611.9,529.5,580.2,493.5,580.2z"/>
			<path class="st5" d="M493.5,580.2c-6.5,0-12.8,1-18.7,3c-11.9-16.5-30.4-27.1-51.2-27.1c-27.1,0-50.4,18.1-60.2,43.8
				c6.8,8.1,15.2,16.2,25.3,24.1c11.9,9.3,25.4,16.8,39.8,22.5c0,0,0,0,0,0c0.9,0.3,1.8,0.7,2.6,1c0.4,0.2,0.8,0.3,1.2,0.5
				c1.6,0.6,3.3,1.2,4.9,1.7c0.5,0.2,1.1,0.4,1.7,0.6c1.5,0.5,3.1,1,4.6,1.5c0.3,0.1,0.5,0.2,0.8,0.2c1.7,0.5,3.4,1,5.1,1.4
				c0.5,0.1,1,0.3,1.5,0.4c1.8,0.5,3.6,0.9,5.4,1.3c0.1,0,0.3,0.1,0.4,0.1c1.7,0.4,3.5,0.8,5.2,1.1c0.4,0.1,0.9,0.2,1.3,0.3
				c1.8,0.4,3.7,0.7,5.6,1c0.2,0,0.3,0.1,0.5,0.1c1.7,0.3,3.5,0.6,5.3,0.8c0.4,0.1,0.8,0.1,1.2,0.2c1.9,0.3,3.8,0.5,5.7,0.7
				c0.1,0,0.1,0,0.2,0c0,0,0,0,0,0c26.1,2.8,52.8,0.9,77-5.8c0-0.8,0.1-1.7,0.1-2.5C558.6,611.9,529.5,580.2,493.5,580.2z"/>
		</g>
		<path class="st10" d="M430.7,379.5c-7.1,10.3-11.2,22.8-11.2,36.3c0,35.6,28.8,64.4,64.4,64.4c24.4,0,45.7-13.6,56.6-33.6
			L430.7,379.5z"/>
		<path class="st5" d="M430.7,379.5c-7.1,10.3-11.2,22.8-11.2,36.3c0,35.6,28.8,64.4,64.4,64.4c24.4,0,45.7-13.6,56.6-33.6
			L430.7,379.5z"/>
		<path class="st5" d="M459.6,397.1c-3.5,5.1-5.5,11.3-5.5,17.9c0,17.6,14.2,31.8,31.8,31.8c12.1,0,22.6-6.7,27.9-16.6L459.6,397.1z
			"/>
		<path class="st0" d="M592.3,412.2c-1.8-2.7-3.8-5.2-6-7.5L541,446.8c13.8,20.4,36.4,29.1,50.5,19.6S606,432.6,592.3,412.2z"/>
		<path class="st5" d="M592.3,412.2c-1.8-2.7-3.8-5.2-6-7.5L541,446.8c13.8,20.4,36.4,29.1,50.5,19.6S606,432.6,592.3,412.2z"/>
		<path class="st7" d="M459.6,397.1c-3.5,5.1-5.5,11.3-5.5,17.9c0,17.6,14.2,31.8,31.8,31.8c12.1,0,22.6-6.7,27.9-16.6L459.6,397.1z
			"/>
		<path class="st7" d="M553.3,460.3c10.1-0.6,18.1-8.9,18.1-19.2c0-6.3-3-11.9-7.7-15.4L541,446.8
			C544.6,452.2,548.8,456.7,553.3,460.3z"/>
		<path class="st5" d="M553.3,460.3c10.1-0.6,18.1-8.9,18.1-19.2c0-6.3-3-11.9-7.7-15.4L541,446.8
			C544.6,452.2,548.8,456.7,553.3,460.3z"/>
		<circle class="st6" cx="491.3" cy="330.4" r="17.3"/>
		<circle class="st6" cx="596.7" cy="337" r="17.3"/>
		<circle class="st6" cx="419.6" cy="348.6" r="11.1"/>
		<circle class="st6" cx="358.9" cy="421.9" r="11.1"/>
		<circle class="st6" cx="656.2" cy="437.4" r="5.6"/>
		<circle class="st6" cx="553.1" cy="372.4" r="5.6"/>
	</g>
</g>
<g>
	<circle class="st3" cx="814.5" cy="118.5" r="51.8"/>
	<path class="st4" d="M838.6,72.7C849.2,82.1,856,96,856,111.4c0,28.6-23.2,51.8-51.8,51.8c-8.7,0-16.8-2.1-24-5.9
		c9.1,8.1,21.2,13.1,34.4,13.1c28.6,0,51.8-23.2,51.8-51.8C866.3,98.6,855.1,81.3,838.6,72.7z"/>
	<circle class="st5" cx="814.5" cy="118.5" r="51.8"/>
	<g>
		<g>
			<line class="st5" x1="814.2" y1="46.2" x2="814.2" y2="64.5"/>
			<circle class="st7" cx="814.5" cy="46.2" r="7.2"/>
		</g>
		<g>
			<line class="st5" x1="814.9" y1="190.8" x2="814.9" y2="172.5"/>
			<circle class="st7" cx="814.5" cy="190.8" r="7.2"/>
		</g>
	</g>
	<g>
		<g>
			<line class="st5" x1="778.1" y1="56.1" x2="787.2" y2="71.9"/>
			<circle class="st7" cx="778.4" cy="55.9" r="7.2"/>
		</g>
		<g>
			<line class="st5" x1="851" y1="181" x2="841.8" y2="165.1"/>
			<circle class="st7" cx="850.7" cy="181.2" r="7.2"/>
		</g>
	</g>
	<g>
		<g>
			<line class="st5" x1="751.8" y1="82.7" x2="767.6" y2="91.8"/>
			<circle class="st7" cx="751.9" cy="82.4" r="7.2"/>
		</g>
		<g>
			<line class="st5" x1="877.3" y1="154.4" x2="861.5" y2="145.2"/>
			<circle class="st7" cx="877.2" cy="154.7" r="7.2"/>
		</g>
	</g>
	<g>
		<g>
			<line class="st5" x1="742.2" y1="118.9" x2="760.5" y2="118.9"/>
			<circle class="st7" cx="742.2" cy="118.5" r="7.2"/>
		</g>
		<g>
			<line class="st5" x1="886.9" y1="118.2" x2="868.5" y2="118.2"/>
			<circle class="st7" cx="886.9" cy="118.5" r="7.2"/>
		</g>
	</g>
	<g>
		<g>
			<line class="st5" x1="752.1" y1="155" x2="768" y2="145.8"/>
			<circle class="st7" cx="751.9" cy="154.7" r="7.2"/>
		</g>
		<g>
			<line class="st5" x1="877" y1="82.1" x2="861.1" y2="91.2"/>
			<circle class="st7" cx="877.2" cy="82.4" r="7.2"/>
		</g>
	</g>
	<g>
		<g>
			<line class="st5" x1="778.7" y1="181.3" x2="787.8" y2="165.5"/>
			<circle class="st7" cx="778.4" cy="181.2" r="7.2"/>
		</g>
		<g>
			<line class="st5" x1="850.4" y1="55.7" x2="841.2" y2="71.6"/>
			<circle class="st7" cx="850.7" cy="55.9" r="7.2"/>
		</g>
	</g>
	<circle class="st6" cx="797.3" cy="143.2" r="10.1"/>
	<circle class="st6" cx="804.2" cy="111.4" r="5"/>
	<circle class="st4" cx="824.9" cy="107.7" r="6.4"/>
</g>
<g>
	<circle class="st3" cx="121.1" cy="788.2" r="34.6"/>
	<path class="st4" d="M137.2,757.5c7.1,6.3,11.6,15.6,11.6,25.9c0,19.1-15.5,34.6-34.6,34.6c-5.8,0-11.2-1.4-16-3.9
		c6.1,5.4,14.1,8.7,23,8.7c19.1,0,34.6-15.5,34.6-34.6C155.7,774.8,148.2,763.3,137.2,757.5z"/>
	<circle class="st5" cx="121.1" cy="788.2" r="34.6"/>
	<g>
		<g>
			<line class="st5" x1="120.9" y1="739.9" x2="120.9" y2="752.1"/>
			<circle class="st7" cx="121.1" cy="739.9" r="4.8"/>
		</g>
		<g>
			<line class="st5" x1="121.3" y1="836.5" x2="121.3" y2="824.2"/>
			<circle class="st7" cx="121.1" cy="836.5" r="4.8"/>
		</g>
	</g>
	<g>
		<g>
			<line class="st5" x1="96.8" y1="746.4" x2="102.9" y2="757"/>
			<circle class="st7" cx="97" cy="746.3" r="4.8"/>
		</g>
		<g>
			<line class="st5" x1="145.5" y1="829.9" x2="139.4" y2="819.3"/>
			<circle class="st7" cx="145.3" cy="830" r="4.8"/>
		</g>
	</g>
	<g>
		<g>
			<line class="st5" x1="79.2" y1="764.2" x2="89.8" y2="770.3"/>
			<circle class="st7" cx="79.3" cy="764" r="4.8"/>
		</g>
		<g>
			<line class="st5" x1="163.1" y1="812.1" x2="152.5" y2="806"/>
			<circle class="st7" cx="162.9" cy="812.3" r="4.8"/>
		</g>
	</g>
	<g>
		<g>
			<line class="st5" x1="72.8" y1="788.4" x2="85" y2="788.4"/>
			<circle class="st7" cx="72.8" cy="788.2" r="4.8"/>
		</g>
		<g>
			<line class="st5" x1="169.4" y1="787.9" x2="157.2" y2="787.9"/>
			<circle class="st7" cx="169.4" cy="788.2" r="4.8"/>
		</g>
	</g>
	<g>
		<g>
			<line class="st5" x1="79.4" y1="812.5" x2="90" y2="806.4"/>
			<circle class="st7" cx="79.3" cy="812.3" r="4.8"/>
		</g>
		<g>
			<line class="st5" x1="162.8" y1="763.8" x2="152.2" y2="769.9"/>
			<circle class="st7" cx="162.9" cy="764" r="4.8"/>
		</g>
	</g>
	<g>
		<g>
			<line class="st5" x1="97.2" y1="830.1" x2="103.3" y2="819.5"/>
			<circle class="st7" cx="97" cy="830" r="4.8"/>
		</g>
		<g>
			<line class="st5" x1="145.1" y1="746.2" x2="139" y2="756.8"/>
			<circle class="st7" cx="145.3" cy="746.3" r="4.8"/>
		</g>
	</g>
	<circle class="st6" cx="109.6" cy="804.7" r="6.7"/>
	<circle class="st6" cx="114.2" cy="783.4" r="3.4"/>
	<circle class="st4" cx="128" cy="780.9" r="4.3"/>
</g>
<g>
	<g>
		<path class="st4" d="M889.5,499.2c1.9,0,1.9-3,0-3C887.5,496.2,887.5,499.2,889.5,499.2L889.5,499.2z"/>
	</g>
</g>
</svg>
