<?xml version="1.0" encoding="utf-8"?>
<svg version="1.1" id="Layer_1" xmlns="http://www.w3.org/2000/svg" xmlns:xlink="http://www.w3.org/1999/xlink" x="0px" y="0px"
	 viewBox="0 0 1000 1000" style="enable-background:new 0 0 1000 1000;" xml:space="preserve">
<style type="text/css">
	.st0{fill: rgba(0,0,0,0);}
	.st1{fill:#606060;}
	.st2{fill:#E4E8EC;}
	.st3{fill:#FFF1E5;}
	.st4{fill:#FFD7CF;}
	.st5{fill:none;stroke:#441A36;stroke-width:6;stroke-linecap:round;stroke-linejoin:round;stroke-miterlimit:10;}
	.st6{opacity:0.34;}
	.st7{fill:#231A17;}
	.st8{fill:#D37157;}
	.st9{fill:none;stroke:#000000;stroke-width:2;stroke-linecap:round;stroke-linejoin:round;stroke-miterlimit:10;}
	.st10{fill:#441A36;}
	.st11{fill:#A4FCEF;}
	.st12{fill:#8FEFDF;}
	
		.st13{opacity:0.43;fill:none;stroke:#FFFFFF;stroke-width:6;stroke-linecap:round;stroke-linejoin:round;stroke-miterlimit:10;enable-background:new    ;}
</style>
<rect class="st0" width="1000" height="1000"/>
<ellipse class="st2" cx="500" cy="823.2" rx="258.3" ry="45.2"/>
<g>
	<path id="XMLID_5_" class="st3" d="M499.8,757.6L499.8,757.6c-114,0-206.6-92.3-206.6-206.6V311.2h413.2v239.7
		C706.5,664.9,614.1,757.6,499.8,757.6z"/>
	<path id="XMLID_1198_" class="st4" d="M499.8,729.1L499.8,729.1c-114,0-206.6-92.3-206.6-206.6V551c0,114,92.3,206.6,206.6,206.6
		l0,0c114,0,206.6-92.3,206.6-206.6v-28.5C706.5,636.4,614.1,729.1,499.8,729.1z"/>
	<path id="XMLID_2424_" class="st5" d="M499.8,757.6L499.8,757.6c-114,0-206.6-92.3-206.6-206.6V311.2h413.2v239.7
		C706.5,664.9,614.1,757.6,499.8,757.6z"/>
	<path id="XMLID_1197_" class="st4" d="M708.1,335.1c-0.7-11.1-1.3-22.6-1.6-33.7c-137.5,6.5-275.7,5.6-412.9-6.5
		c-1,12.8-1.6,25.5-2.6,38.3c6.2,5.6,12.8,11.5,19,17c5.2,2.6,12.1,6.2,18.3,9.5c27.5,14.4,65.8,32.7,102.5,39.9
		c13.4,2.6,27.5,3.9,41.9,3.6c61.9-0.7,114-25.2,135.9-35.4c3.3-1.6,5.9-2.9,7.5-3.3c1.3-0.7,2.6-1,4.6-1c3.9,0,8.5,1,14.1,2
		c7.2,1.6,15.7,3.3,25.2,2.6c10.8-0.7,20.6-3.9,30.1-10.2C695.7,350.2,701.9,342.7,708.1,335.1z"/>
	<g id="XMLID_2783_" class="st6">
		<rect id="XMLID_2784_" x="270.3" y="444.5" class="st7" width="22.9" height="21.6"/>
		<rect id="XMLID_2785_" x="706.5" y="444.5" class="st7" width="22.9" height="21.6"/>
	</g>
	<g>
		<path id="XMLID_68_" class="st8" d="M608.6,190.7c0,0-165.4-109-302.2,12.8c-25.5,22.6-35.7,55-35.7,84.8v177.8h22.9V351.5
			c0-8.5,5.9-15.1,13.1-15.1l0,0c11.8,0,75.6,34.1,129.7,43.6c81.5,14.1,155.9-23.6,171.9-29.1c27.5-9.8,49.8,24.2,84.5-14.1h1.3
			c7.2,0,13.1,6.9,13.1,15.1v114.6H730V289.3C729.4,250.6,684.8,153.7,608.6,190.7z"/>
		<path id="XMLID_3_" class="st5" d="M608.6,190.7c0,0-165.4-109-302.2,12.8c-25.5,22.6-35.7,55-35.7,84.8v177.8h22.9V351.5
			c0-8.5,5.9-15.1,13.1-15.1l0,0c11.8,0,75.6,34.1,129.7,43.6c81.5,14.1,155.9-23.6,171.9-29.1c27.5-9.8,49.8,24.2,84.5-14.1h1.3
			c7.2,0,13.1,6.9,13.1,15.1v114.6H730V289.3C729.4,250.6,684.8,153.7,608.6,190.7z"/>
		<path id="XMLID_6_" class="st5" d="M468.7,297.1c0,0-177.5,11.5-215.1-82.8"/>
		<path id="XMLID_9_" class="st5" d="M493.9,274.5c0,0-170.9-10.8-215.5-105.1"/>
	</g>
	<path id="XMLID_85_" class="st3" d="M706.5,440.6V548c22.9,0,41.3-23.9,41.3-53.7l0,0C747.7,464.5,729.4,440.6,706.5,440.6z"/>
	<path id="XMLID_1205_" class="st4" d="M706.5,446.5v95.3c13.4-8.8,22.6-26.9,22.6-47.8l0,0C729.1,473.3,719.9,455.3,706.5,446.5z"
		/>
	<path id="XMLID_12_" class="st5" d="M706.5,440.6V548c22.9,0,41.3-23.9,41.3-53.7l0,0C747.7,464.5,729.4,440.6,706.5,440.6z"/>
	<path id="XMLID_87_" class="st3" d="M293.5,440.6V548c-22.9,0-41.3-23.9-41.3-53.7l0,0C252,464.5,270.6,440.6,293.5,440.6z"/>
	<path id="XMLID_1203_" class="st4" d="M293.5,448.4c-11.8,9.5-20,26.5-20,45.8l0,0c0,19.3,7.9,36.3,20,45.8V448.4z"/>
	<path id="XMLID_11_" class="st5" d="M293.5,440.6V548c-22.9,0-41.3-23.9-41.3-53.7l0,0C252,464.5,270.6,440.6,293.5,440.6z"/>
	<path id="XMLID_7_" class="st5" d="M491.3,528l-13.8,44.9c0,4.9,16,1,32.4,4.9"/>
	<path id="XMLID_16_" class="st5" d="M568.6,611.8c4.9,34.1-39,64.2-73.3,58"/>
	<g id="XMLID_19_">
		<ellipse id="XMLID_14_" class="st9" cx="425.5" cy="475.3" rx="13.8" ry="14.7"/>
		<ellipse id="XMLID_20_" class="st10" cx="425.5" cy="475.3" rx="13.8" ry="14.7"/>
		<path id="XMLID_17_" class="st5" d="M378,444.2c6.9-8.2,22.9-13.8,41.9-13.8c15.1,0,28.2,3.6,36.3,9.2"/>
	</g>
	<g id="XMLID_13_">
		<ellipse id="XMLID_22_" class="st9" cx="576.1" cy="475.3" rx="13.8" ry="14.7"/>
		<ellipse id="XMLID_21_" class="st10" cx="576.1" cy="475.3" rx="13.8" ry="14.7"/>
		<path id="XMLID_18_" class="st5" d="M623.6,444.2c-6.9-8.2-22.9-13.8-41.9-13.8c-15.1,0-28.2,3.6-36.3,9.2"/>
	</g>
	<g>
		<g>
			<path class="st11" d="M657,593.7L657,593.7c0-18.1,0-36.1,0-54.2c-104.6-9-210-9-314.6,0c0,18.1,0,36.1,0,54.2l0,0l0,0
				c0,75.1,70.4,136,157.3,136S657,668.9,657,593.7L657,593.7z"/>
			<path class="st11" d="M657,593.7L657,593.7c0-18.1,0-36.1,0-54.2c-104.6-9-210-9-314.6,0c0,18.1,0,36.1,0,54.2l0,0l0,0
				c0,75.1,70.4,136,157.3,136S657,668.9,657,593.7L657,593.7z"/>
			<g>
				<path class="st12" d="M499.7,683c-86.9,0-157.3-49.1-157.3-109.7c0,6.8,0,13.7,0,20.5l0,0l0,0c0,75.1,70.4,136,157.3,136
					S657,668.9,657,593.7l0,0l0,0c0-6.8,0-13.7,0-20.5C657,633.8,586.6,683,499.7,683z"/>
				<path class="st12" d="M342.4,573.2L342.4,573.2L342.4,573.2z"/>
				<path class="st12" d="M657,573.2L657,573.2L657,573.2z"/>
			</g>
			<path class="st13" d="M657,561.8c-104.7-9-210-9-314.6,0"/>
			<path class="st5" d="M657,593.7L657,593.7c0-18.1,0-36.1,0-54.2c-104.6-9-210-9-314.6,0c0,18.1,0,36.1,0,54.2l0,0l0,0
				c0,75.1,70.4,136,157.3,136S657,668.9,657,593.7L657,593.7z"/>
			<path class="st5" d="M380.4,591.1c23.8,11.8,68.3,19.7,119.3,19.7s95.5-7.9,119.3-19.7"/>
			<path class="st5" d="M393.6,646.6c21.2,11.8,60.8,19.7,106.1,19.7s85-7.9,106.1-19.7"/>
		</g>
		<path class="st5" d="M657,539.6l49.4-95.1V548c0,0-19.4,59.9-61.8,98.6"/>
		<path class="st5" d="M343,539.6l-49.4-95.1V548c0,0,19.4,59.9,61.8,98.6"/>
	</g>
</g>
</svg>
